<svg width="98" height="37" viewBox="0 0 98 37" fill="none" xmlns="http://www.w3.org/2000/svg">
<path d="M7.496 26.712L0.136 19.448L7.496 12.184H12.104L4.712 19.448L12.104 26.712H7.496ZM25.8418 11.704V18.232H33.5218V21.208H25.8418V28.024H34.4818V31H22.1938V8.728H34.4818V11.704H25.8418ZM49.503 31.224C48.0097 31.224 46.6657 30.968 45.471 30.456C44.2763 29.9227 43.3377 29.176 42.655 28.216C41.9723 27.256 41.631 26.136 41.631 24.856H45.535C45.6203 25.816 45.9937 26.6053 46.655 27.224C47.3377 27.8427 48.287 28.152 49.503 28.152C50.7617 28.152 51.743 27.8533 52.447 27.256C53.151 26.6373 53.503 25.848 53.503 24.888C53.503 24.1413 53.279 23.5333 52.831 23.064C52.4043 22.5947 51.8603 22.232 51.199 21.976C50.559 21.72 49.663 21.4427 48.511 21.144C47.0603 20.76 45.8763 20.376 44.959 19.992C44.063 19.5867 43.295 18.968 42.655 18.136C42.015 17.304 41.695 16.1947 41.695 14.808C41.695 13.528 42.015 12.408 42.655 11.448C43.295 10.488 44.191 9.752 45.343 9.24C46.495 8.728 47.8283 8.472 49.343 8.472C51.4977 8.472 53.2577 9.016 54.623 10.104C56.0097 11.1707 56.7777 12.6427 56.927 14.52H52.895C52.831 13.7093 52.447 13.016 51.743 12.44C51.039 11.864 50.111 11.576 48.959 11.576C47.9137 11.576 47.0603 11.8427 46.399 12.376C45.7377 12.9093 45.407 13.6773 45.407 14.68C45.407 15.3627 45.6097 15.928 46.015 16.376C46.4417 16.8027 46.975 17.144 47.615 17.4C48.255 17.656 49.1297 17.9333 50.239 18.232C51.711 18.6373 52.9057 19.0427 53.823 19.448C54.7617 19.8533 55.551 20.4827 56.191 21.336C56.8523 22.168 57.183 23.288 57.183 24.696C57.183 25.8267 56.8737 26.8933 56.255 27.896C55.6577 28.8987 54.7723 29.7093 53.599 30.328C52.447 30.9253 51.0817 31.224 49.503 31.224ZM85.509 12.184H90.117L97.477 19.448L90.117 26.712H85.509L92.901 19.448L85.509 12.184Z" fill="#FFFCFC"/>
<path d="M76.5275 0.791998L67.8235 36.6H64.2395L72.9115 0.791998H76.5275Z" fill="#5E4DB0"/>
</svg>
