<?xml version="1.0" standalone="no"?>
<!DOCTYPE svg PUBLIC "-//W3C//DTD SVG 20010904//EN"
 "http://www.w3.org/TR/2001/REC-SVG-20010904/DTD/svg10.dtd">
<svg version="1.0" xmlns="http://www.w3.org/2000/svg"
 width="206.000000pt" height="206.000000pt" viewBox="0 0 206.000000 206.000000"
 preserveAspectRatio="xMidYMid meet">
<metadata>
Created by potrace 1.14, written by Peter Selinger 2001-2017
</metadata>
<g transform="translate(0.000000,206.000000) scale(0.100000,-0.100000)"
fill="#000000" stroke="none">
<path d="M0 1030 l0 -1030 1030 0 1030 0 0 1030 0 1030 -1030 0 -1030 0 0
-1030z m378 248 l3 -38 -110 0 -111 0 0 -80 0 -80 95 0 95 0 0 -40 0 -40 -95
0 -95 0 0 -85 0 -84 108 -3 107 -3 3 -37 3 -38 -160 0 -161 0 0 278 c0 153 3
282 7 286 4 3 75 5 157 4 l151 -3 3 -37z m452 32 c44 -12 97 -65 109 -108 l10
-32 -54 0 c-45 0 -55 3 -60 20 -13 41 -92 63 -138 39 -30 -16 -37 -28 -37 -65
0 -42 25 -61 112 -88 139 -43 178 -80 178 -167 0 -137 -173 -213 -313 -136
-43 24 -77 72 -77 111 0 24 3 26 44 26 40 0 46 -3 65 -35 24 -41 62 -59 108
-50 41 7 70 33 79 67 9 40 -36 81 -111 102 -139 38 -185 80 -185 167 0 116
130 188 270 149z m1050 -176 l95 -95 -95 -89 -95 -89 -60 0 -60 0 93 91 94 91
-93 93 -94 94 60 0 60 0 95 -96z"/>
</g>
</svg>
